<svg width="16" height="16" viewBox="0 0 16 16" fill="none" xmlns="http://www.w3.org/2000/svg">
<path d="M8 5.50001C7.50555 5.50001 7.0222 5.64663 6.61108 5.92133C6.19995 6.19604 5.87952 6.58648 5.6903 7.0433C5.50108 7.50011 5.45158 8.00278 5.54804 8.48773C5.6445 8.97269 5.8826 9.41814 6.23224 9.76777C6.58187 10.1174 7.02732 10.3555 7.51228 10.452C7.99723 10.5484 8.4999 10.4989 8.95671 10.3097C9.41353 10.1205 9.80397 9.80006 10.0787 9.38893C10.3534 8.97781 10.5 8.49446 10.5 8.00001C10.5 7.33697 10.2366 6.70108 9.76777 6.23224C9.29893 5.7634 8.66304 5.50001 8 5.50001ZM8 9.50001C7.70333 9.50001 7.41332 9.41203 7.16665 9.24721C6.91997 9.08239 6.72771 8.84812 6.61418 8.57403C6.50065 8.29994 6.47095 7.99834 6.52882 7.70737C6.5867 7.4164 6.72956 7.14913 6.93934 6.93935C7.14912 6.72957 7.4164 6.58671 7.70737 6.52883C7.99834 6.47095 8.29994 6.50066 8.57403 6.61419C8.84812 6.72772 9.08239 6.91998 9.24721 7.16665C9.41203 7.41333 9.5 7.70334 9.5 8.00001C9.5 8.39783 9.34197 8.77936 9.06066 9.06067C8.77936 9.34197 8.39783 9.50001 8 9.50001ZM12.6069 9.94626C12.3921 10.4541 12.0947 10.9229 11.7269 11.3338C11.6378 11.4301 11.5144 11.4876 11.3833 11.4938C11.2523 11.5 11.124 11.4545 11.0262 11.3669C10.9284 11.2794 10.869 11.157 10.8607 11.026C10.8524 10.895 10.8959 10.766 10.9819 10.6669C11.6384 9.93385 12.0014 8.98438 12.0014 8.00032C12.0014 7.01626 11.6384 6.06679 10.9819 5.33376C10.9369 5.28504 10.902 5.22786 10.8793 5.16554C10.8566 5.10322 10.8465 5.037 10.8496 4.97074C10.8528 4.90449 10.8691 4.83952 10.8976 4.77962C10.926 4.71972 10.9662 4.66609 11.0156 4.62185C11.065 4.57761 11.1227 4.54365 11.1854 4.52194C11.2481 4.50023 11.3145 4.49121 11.3807 4.4954C11.4469 4.49959 11.5116 4.51691 11.571 4.54635C11.6304 4.57579 11.6834 4.61676 11.7269 4.66688C12.3582 5.37334 12.7761 6.2445 12.9318 7.17906C13.0876 8.11362 12.9749 9.07321 12.6069 9.94626ZM4.3125 6.44313C4.01749 7.14149 3.92701 7.9093 4.05161 8.6571C4.1762 9.40491 4.51075 10.1019 5.01625 10.6669C5.10221 10.766 5.14574 10.895 5.13745 11.026C5.12916 11.157 5.06971 11.2794 4.97193 11.3669C4.87415 11.4545 4.74588 11.5 4.6148 11.4938C4.48371 11.4876 4.36032 11.4301 4.27125 11.3338C3.45037 10.4175 2.99644 9.23053 2.99644 8.00032C2.99644 6.77011 3.45037 5.58316 4.27125 4.66688C4.35969 4.56784 4.48384 4.50799 4.61641 4.50048C4.74897 4.49298 4.87909 4.53845 4.97813 4.62688C5.07717 4.71532 5.13703 4.83947 5.14453 4.97204C5.15203 5.1046 5.10656 5.23472 5.01813 5.33376C4.72313 5.66194 4.48468 6.03683 4.3125 6.44313ZM15.5 8.00001C15.503 9.96359 14.7332 11.8495 13.3569 13.25C13.3113 13.2987 13.2565 13.3378 13.1957 13.365C13.1348 13.3922 13.0691 13.4069 13.0025 13.4083C12.9359 13.4098 12.8696 13.3979 12.8076 13.3733C12.7456 13.3488 12.6892 13.3121 12.6416 13.2654C12.594 13.2188 12.5562 13.163 12.5305 13.1016C12.5048 13.0401 12.4916 12.9741 12.4917 12.9074C12.4919 12.8407 12.5053 12.7748 12.5313 12.7134C12.5573 12.652 12.5953 12.5965 12.6431 12.55C13.8348 11.3359 14.5025 9.70253 14.5025 8.00126C14.5025 6.29999 13.8348 4.66666 12.6431 3.45251C12.55 3.35786 12.4982 3.23008 12.4993 3.09728C12.5003 2.96448 12.5541 2.83754 12.6488 2.74438C12.7434 2.65123 12.8712 2.59948 13.004 2.60054C13.1368 2.60159 13.2637 2.65536 13.3569 2.75001C14.7332 4.15053 15.503 6.03642 15.5 8.00001ZM3.35688 12.5488C3.40292 12.5956 3.43929 12.6511 3.46389 12.712C3.4885 12.7729 3.50086 12.8381 3.50028 12.9038C3.4997 12.9695 3.48619 13.0344 3.46051 13.0949C3.43483 13.1554 3.39749 13.2102 3.35063 13.2563C3.30376 13.3023 3.24829 13.3387 3.18737 13.3633C3.12645 13.3879 3.06128 13.4002 2.99558 13.3997C2.92989 13.3991 2.86495 13.3856 2.80447 13.3599C2.744 13.3342 2.68917 13.2969 2.64313 13.25C1.26699 11.8491 0.495941 9.96378 0.495941 8.00001C0.495941 6.03623 1.26699 4.15096 2.64313 2.75001C2.68866 2.70133 2.74347 2.66224 2.80433 2.63505C2.86519 2.60786 2.93087 2.59311 2.99751 2.59167C3.06415 2.59023 3.13041 2.60213 3.19239 2.62668C3.25436 2.65122 3.3108 2.6879 3.35839 2.73458C3.40598 2.78125 3.44376 2.83697 3.4695 2.89846C3.49525 2.95994 3.50843 3.02595 3.50829 3.09261C3.50815 3.15927 3.49468 3.22523 3.46868 3.2866C3.44268 3.34798 3.40467 3.40354 3.35688 3.45001C2.16517 4.66416 1.49753 6.29748 1.49753 7.99876C1.49753 9.70003 2.16517 11.3334 3.35688 12.5475V12.5488Z" fill="#1C1C1C"/>
</svg>
